<svg viewBox="0 0 32 32" height="32" width="32" xmlns="http://www.w3.org/2000/svg" xml:space="preserve" style="fill-rule:evenodd;clip-rule:evenodd;stroke-linejoin:round;stroke-miterlimit:2"><path d="M19 3H5c-1.1 0-2 .9-2 2v14c0 1.1.9 2 2 2h14c1.1 0 2-.9 2-2V5c0-1.1-.9-2-2-2Zm-9.5 8.5c0 .8-.7 1.5-1.5 1.5H7v2H5.5V9H8c.8 0 1.5.7 1.5 1.5v1Zm5 2c0 .8-.7 1.5-1.5 1.5h-2.5V9H13c.8 0 1.5.7 1.5 1.5v3Zm4-3H17v1h1.5V13H17v2h-1.5V9h3v1.5Zm-6.5 0h1v3h-1v-3Zm-5 0h1v1H7v-1Z" style="fill:#fff;fill-rule:nonzero" transform="translate(-2.667 -2.667) scale(1.55556)"/></svg>