<?xml version="1.0" encoding="UTF-8" standalone="no"?>
<svg xmlns="http://www.w3.org/2000/svg" height="32" width="32" version="1.0" viewBox="0 0 32 32">
 <path style="color:#000000;block-progression:tb;text-transform:none;text-indent:0" d="m4.6992 2.002v0.0019c-0.395 0.0764-0.7062 0.4666-0.6992 0.875v26.244c0 0.458 0.4122 0.875 0.8633 0.875h22.278c0.451 0 0.863-0.417 0.863-0.875v-20.285c-0.008-0.1338-0.045-0.2659-0.109-0.3829l-6.625-6.3985c-0.086-0.0328-0.178-0.051-0.27-0.0546h-16.137c-0.0534-0.0052-0.1101-0.0052-0.1638 0zm10.014 3.998h0.385c0.371 0 0.728 0.1326 0.986 0.3906 1.065 1.0644 0.564 3.6574 0.031 5.8024-0.032 0.097-0.046 0.181-0.062 0.229 0.645 1.822 1.564 3.288 2.58 4.127 0.419 0.322 0.886 0.645 1.402 0.935 0.726-0.08 1.419-0.113 2.08-0.113 2 0 3.212 0.355 3.68 1.113 0.161 0.258 0.24 0.563 0.191 0.885-0.016 0.403-0.161 0.776-0.451 1.067-0.274 0.306-0.757 0.482-1.467 0.482-1.225 0-3.228-0.371-4.841-1.193-2.775 0.306-4.837 0.678-6.498 1.211-0.081 0.032-0.179 0.063-0.291 0.111-2 3.42-3.4832 4.953-4.7896 4.953-0.2582 0-0.5173-0.064-0.7109-0.178l-0.7734-0.498-0.0489-0.082c-0.113-0.29-0.1464-0.567-0.082-0.873 0.1774-0.854 1.0976-2.21 3.0332-3.42 0.3064-0.226 0.7904-0.483 1.4356-0.789 0.484-0.838 1-1.822 1.549-2.902 0.822-1.661 1.337-3.304 1.74-4.723v-0.017c-0.597-1.952-0.952-3.1289-0.355-5.2739 0.145-0.6128 0.68-1.2441 1.277-1.2441zm0.24 1c-0.032 0.0484-0.081 0.1289-0.113 0.1934-0.274 0.6773-0.258 1.8551 0.113 3.3066l0.082-0.062c0.113-0.5166 0.161-0.968 0.258-1.3228l0.047-0.2597c0.161-0.9192 0.128-1.3884-0.147-1.7754l-0.24-0.0801zm0.131 7.293c-0.371 1.193-0.905 2.467-1.631 3.869-0.322 0.613-0.678 1.192-0.807 1.676l0.176-0.065c2.049-0.79 3.988-1.24 5.391-1.498-0.242-0.161-0.469-0.34-0.662-0.517-0.968-0.823-1.806-2.014-2.467-3.465zm6.723 4.432c-0.113 0-0.222 0.002-0.368 0.164 1.178 0.516 2.319 0.822 3.061 0.822 0.113 0 0.212-0.017 0.309-0.033h0.064c0.081-0.033 0.128-0.052 0.145-0.213-0.033-0.049-0.064-0.111-0.145-0.176-0.161-0.161-0.808-0.564-3.066-0.564zm-11.723 2.92c-0.3387 0.193-0.6161 0.371-0.7774 0.5-1.1452 1.048-1.8685 2.111-1.9492 2.724 0.7258-0.242 1.6782-1.305 2.7266-3.224z" fill="#fff"/>
</svg>
