<svg viewBox="0 0 24 24" height="24" width="24" xmlns="http://www.w3.org/2000/svg" xml:space="preserve" style="fill-rule:evenodd;clip-rule:evenodd;stroke-linejoin:round;stroke-miterlimit:2"><path style="fill:none;fill-rule:nonzero" d="M0 0h24v24H0z"/><path d="M21 7v12a1.93 1.93 0 0 1-.587 1.413A1.93 1.93 0 0 1 19 21H5c-.55 0-1.021-.196-1.412-.587A1.927 1.927 0 0 1 3 19V5c0-.55.196-1.021.588-1.413A1.926 1.926 0 0 1 5 3h12l4 4Zm-9 11c.833 0 1.542-.292 2.125-.875A2.894 2.894 0 0 0 15 15c0-.833-.292-1.542-.875-2.125A2.894 2.894 0 0 0 12 12c-.833 0-1.542.292-2.125.875A2.894 2.894 0 0 0 9 15c0 .833.292 1.542.875 2.125A2.894 2.894 0 0 0 12 18Zm-6-8h9V6H6v4Z" style="fill-rule:nonzero"/></svg>